<svg xmlns="http://www.w3.org/2000/svg" xmlns:xlink="http://www.w3.org/1999/xlink" width="500" zoomAndPan="magnify" viewBox="0 0 375 374.999991" height="500" preserveAspectRatio="xMidYMid meet" version="1.0"><defs><g/><clipPath id="0bdf0fc40e"><rect x="0" width="178" y="0" height="233"/></clipPath><clipPath id="811962e3a9"><rect x="0" width="95" y="0" height="171"/></clipPath><clipPath id="b019830e06"><rect x="0" width="100" y="0" height="170"/></clipPath><clipPath id="9185253d65"><rect x="0" width="89" y="0" height="170"/></clipPath><clipPath id="11a78153db"><rect x="0" width="103" y="0" height="133"/></clipPath></defs><g transform="matrix(1, 0, 0, 1, 0, 67)"><g clip-path="url(#0bdf0fc40e)"><g fill="#fff9f9" fill-opacity="1"><g transform="translate(-0.516498, 181.6266)"><g><path d="M 110.53125 0 L 64.34375 0 L 64.34375 -54.875 C 64.34375 -57.84375 63.601562 -60.066406 62.125 -61.546875 C 60.644531 -63.023438 58.90625 -63.765625 56.90625 -63.765625 C 54.90625 -63.765625 53.164062 -63.054688 51.6875 -61.640625 C 50.207031 -60.222656 49.46875 -58.035156 49.46875 -55.078125 L 49.46875 0 L 1.9375 0 L 1.9375 -57 C 1.9375 -67.175781 3.515625 -75.742188 6.671875 -82.703125 C 9.828125 -89.660156 14.078125 -95.265625 19.421875 -99.515625 C 24.765625 -103.765625 30.6875 -106.851562 37.1875 -108.78125 C 43.695312 -110.71875 50.300781 -111.6875 57 -111.6875 C 62.414062 -111.6875 67.765625 -110.75 73.046875 -108.875 C 78.328125 -107.007812 83.15625 -103.890625 87.53125 -99.515625 C 91.269531 -103.640625 95.875 -106.664062 101.34375 -108.59375 C 106.820312 -110.53125 112.203125 -111.5625 117.484375 -111.6875 C 124.316406 -111.6875 131.015625 -110.6875 137.578125 -108.6875 C 144.148438 -106.695312 150.109375 -103.539062 155.453125 -99.21875 C 160.796875 -94.90625 165.078125 -89.269531 168.296875 -82.3125 C 171.523438 -75.363281 173.140625 -66.925781 173.140625 -57 L 173.140625 0 L 125.609375 0 L 125.609375 -55.078125 C 125.609375 -58.035156 124.832031 -60.222656 123.28125 -61.640625 C 121.738281 -63.054688 120 -63.765625 118.0625 -63.765625 C 116.132812 -63.765625 114.394531 -63.023438 112.84375 -61.546875 C 111.300781 -60.066406 110.53125 -57.84375 110.53125 -54.875 Z M 110.53125 0 "/></g></g></g></g></g><g transform="matrix(1, 0, 0, 1, 126, 78)"><g clip-path="url(#811962e3a9)"><g fill="#171616" fill-opacity="1"><g transform="translate(8.850394, 134.709797)"><g><path d="M 83.492188 -33.480469 L 83.492188 5.277344 L -6.121094 5.277344 L -6.121094 -5.257812 L 19.671875 -48.292969 L 24.195312 -45.578125 L 24.195312 -40.304688 L -4.148438 -40.304688 L -4.148438 -84.195312 L 83.632812 -84.195312 L 83.632812 -74.695312 L 57.914062 -30.035156 L 42.765625 -30.035156 L 42.765625 -35.308594 L 47.554688 -33.097656 L 46.710938 -31.269531 L 41.921875 -33.480469 L 41.921875 -38.757812 L 83.492188 -38.757812 Z M 72.941406 -33.480469 L 78.21875 -33.480469 L 78.21875 -28.207031 L 33.675781 -28.207031 L 39.390625 -40.585938 L 54.863281 -40.585938 L 54.863281 -35.308594 L 50.292969 -37.941406 L 73.785156 -78.738281 L 78.359375 -76.105469 L 73.082031 -76.105469 L 73.082031 -78.921875 L 78.359375 -78.921875 L 78.359375 -73.644531 L 1.125 -73.644531 L 1.125 -78.921875 L 6.402344 -78.921875 L 6.402344 -45.578125 L 1.125 -45.578125 L 1.125 -50.855469 L 33.507812 -50.855469 L 3.679688 -1.085938 L -0.84375 -3.796875 L 4.433594 -3.796875 L 4.433594 0 L -0.84375 0 L -0.84375 -5.277344 L 78.21875 -5.277344 L 78.21875 0 L 72.941406 0 Z M 72.941406 -33.480469 "/></g></g></g><g fill="#fff9f9" fill-opacity="1"><g transform="translate(8.850394, 134.709797)"><g><path d="M 78.21875 -33.484375 L 78.21875 0 L -0.84375 0 L -0.84375 -3.796875 L 24.203125 -45.578125 L 1.125 -45.578125 L 1.125 -78.921875 L 78.359375 -78.921875 L 78.359375 -76.109375 L 54.859375 -35.3125 L 42.765625 -35.3125 L 41.921875 -33.484375 Z M 78.21875 -33.484375 "/></g></g></g></g></g><g transform="matrix(1, 0, 0, 1, 182, 118)"><g clip-path="url(#b019830e06)"><g fill="#000000" fill-opacity="1"><g transform="translate(7.465125, 134.194424)"><g><path d="M 89.824219 -98.476562 L 89.824219 -39.390625 C 89.824219 -32.953125 88.605469 -26.871094 86.167969 -21.144531 C 83.742188 -15.453125 80.367188 -10.445312 76.039062 -6.117188 C 71.71875 -1.792969 66.738281 1.578125 61.097656 4.003906 C 55.414062 6.445312 49.304688 7.667969 42.765625 7.667969 C 36.328125 7.667969 30.246094 6.449219 24.519531 4.011719 C 18.820312 1.582031 13.824219 -1.800781 9.539062 -6.140625 C 5.269531 -10.460938 1.925781 -15.464844 -0.492188 -21.144531 C -2.929688 -26.871094 -4.148438 -32.953125 -4.148438 -39.390625 C -4.148438 -45.929688 -2.929688 -52.039062 -0.484375 -57.722656 C 1.933594 -63.351562 5.277344 -68.324219 9.539062 -72.640625 C 13.824219 -76.976562 18.820312 -80.363281 24.519531 -82.789062 C 30.246094 -85.226562 36.328125 -86.449219 42.765625 -86.449219 L 53.246094 -86.449219 L 53.246094 -41.289062 L 42.765625 -41.289062 C 42.289062 -41.289062 41.886719 -41.121094 41.566406 -40.789062 C 41.195312 -40.402344 41.007812 -39.9375 41.007812 -39.390625 C 41.007812 -38.84375 41.195312 -38.375 41.566406 -37.992188 C 41.886719 -37.660156 42.289062 -37.492188 42.765625 -37.492188 C 43.335938 -37.492188 43.785156 -37.660156 44.109375 -37.992188 C 44.480469 -38.375 44.664062 -38.84375 44.664062 -39.390625 L 44.664062 -103.75 L 89.824219 -103.75 Z M 79.273438 -98.476562 L 84.546875 -98.476562 L 84.546875 -93.199219 L 49.941406 -93.199219 L 49.941406 -98.476562 L 55.21875 -98.476562 L 55.21875 -39.390625 C 55.21875 -36 54.042969 -33.089844 51.695312 -30.660156 C 49.296875 -28.179688 46.320312 -26.941406 42.765625 -26.941406 C 39.304688 -26.941406 36.375 -28.179688 33.980469 -30.660156 C 31.628906 -33.089844 30.457031 -36 30.457031 -39.390625 C 30.457031 -42.78125 31.628906 -45.691406 33.980469 -48.121094 C 36.375 -50.601562 39.304688 -51.839844 42.765625 -51.839844 L 47.972656 -51.839844 L 47.972656 -46.566406 L 42.695312 -46.566406 L 42.695312 -81.171875 L 47.972656 -81.171875 L 47.972656 -75.894531 L 42.765625 -75.894531 C 37.761719 -75.894531 33.058594 -74.957031 28.65625 -73.082031 C 24.226562 -71.195312 20.359375 -68.578125 17.046875 -65.226562 C 13.714844 -61.851562 11.101562 -57.960938 9.207031 -53.554688 C 7.335938 -49.203125 6.402344 -44.480469 6.402344 -39.390625 C 6.402344 -34.386719 7.339844 -29.683594 9.214844 -25.28125 C 11.109375 -20.832031 13.71875 -16.921875 17.046875 -13.554688 C 20.359375 -10.203125 24.226562 -7.582031 28.65625 -5.699219 C 33.058594 -3.820312 37.761719 -2.882812 42.765625 -2.882812 C 47.855469 -2.882812 52.578125 -3.820312 56.929688 -5.691406 C 61.328125 -7.582031 65.210938 -10.210938 68.578125 -13.578125 C 71.941406 -16.941406 74.570312 -20.84375 76.457031 -25.28125 C 78.335938 -29.683594 79.273438 -34.386719 79.273438 -39.390625 Z M 79.273438 -98.476562 "/></g></g></g><g fill="#fff9f9" fill-opacity="1"><g transform="translate(7.465125, 134.194424)"><g><path d="M 84.546875 -98.46875 L 84.546875 -39.390625 C 84.546875 -33.671875 83.46875 -28.273438 81.3125 -23.203125 C 79.15625 -18.140625 76.148438 -13.6875 72.296875 -9.84375 C 68.453125 -6 64.019531 -3 59 -0.84375 C 53.988281 1.3125 48.578125 2.390625 42.765625 2.390625 C 37.046875 2.390625 31.648438 1.3125 26.578125 -0.84375 C 21.515625 -3 17.082031 -6 13.28125 -9.84375 C 9.488281 -13.6875 6.515625 -18.140625 4.359375 -23.203125 C 2.203125 -28.273438 1.125 -33.671875 1.125 -39.390625 C 1.125 -45.203125 2.203125 -50.613281 4.359375 -55.625 C 6.515625 -60.644531 9.488281 -65.078125 13.28125 -68.921875 C 17.082031 -72.773438 21.515625 -75.78125 26.578125 -77.9375 C 31.648438 -80.09375 37.046875 -81.171875 42.765625 -81.171875 L 47.96875 -81.171875 L 47.96875 -46.5625 L 42.765625 -46.5625 C 40.796875 -46.5625 39.128906 -45.859375 37.765625 -44.453125 C 36.410156 -43.046875 35.734375 -41.359375 35.734375 -39.390625 C 35.734375 -37.421875 36.410156 -35.734375 37.765625 -34.328125 C 39.128906 -32.921875 40.796875 -32.21875 42.765625 -32.21875 C 44.828125 -32.21875 46.535156 -32.921875 47.890625 -34.328125 C 49.253906 -35.734375 49.9375 -37.421875 49.9375 -39.390625 L 49.9375 -98.46875 Z M 84.546875 -98.46875 "/></g></g></g></g></g><g transform="matrix(1, 0, 0, 1, 264, 118)"><g clip-path="url(#9185253d65)"><g fill="#fff9f9" fill-opacity="1"><g transform="translate(1.144441, 134.194424)"><g><path d="M 84.546875 -98.46875 L 84.546875 -39.390625 C 84.546875 -33.671875 83.46875 -28.273438 81.3125 -23.203125 C 79.15625 -18.140625 76.148438 -13.6875 72.296875 -9.84375 C 68.453125 -6 64.019531 -3 59 -0.84375 C 53.988281 1.3125 48.578125 2.390625 42.765625 2.390625 C 37.046875 2.390625 31.648438 1.3125 26.578125 -0.84375 C 21.515625 -3 17.082031 -6 13.28125 -9.84375 C 9.488281 -13.6875 6.515625 -18.140625 4.359375 -23.203125 C 2.203125 -28.273438 1.125 -33.671875 1.125 -39.390625 C 1.125 -45.203125 2.203125 -50.613281 4.359375 -55.625 C 6.515625 -60.644531 9.488281 -65.078125 13.28125 -68.921875 C 17.082031 -72.773438 21.515625 -75.78125 26.578125 -77.9375 C 31.648438 -80.09375 37.046875 -81.171875 42.765625 -81.171875 L 47.96875 -81.171875 L 47.96875 -46.5625 L 42.765625 -46.5625 C 40.796875 -46.5625 39.128906 -45.859375 37.765625 -44.453125 C 36.410156 -43.046875 35.734375 -41.359375 35.734375 -39.390625 C 35.734375 -37.421875 36.410156 -35.734375 37.765625 -34.328125 C 39.128906 -32.921875 40.796875 -32.21875 42.765625 -32.21875 C 44.828125 -32.21875 46.535156 -32.921875 47.890625 -34.328125 C 49.253906 -35.734375 49.9375 -37.421875 49.9375 -39.390625 L 49.9375 -98.46875 Z M 84.546875 -98.46875 "/></g></g></g></g></g><g transform="matrix(1, 0, 0, 1, 272, 173)"><g clip-path="url(#11a78153db)"><g fill="#fff9f9" fill-opacity="1"><g transform="translate(10.232256, 99.289058)"><g><path d="M 5.140625 1.109375 L 1.203125 0.265625 L 4.09375 -13.21875 L 8.03125 -12.375 C 10.3125 -11.882812 11.925781 -10.925781 12.875 -9.5 C 13.832031 -8.082031 14.082031 -6.289062 13.625 -4.125 C 13.15625 -1.96875 12.191406 -0.4375 10.734375 0.46875 C 9.273438 1.375 7.410156 1.585938 5.140625 1.109375 Z M 6.15625 -10.421875 L 4.234375 -1.484375 L 5.578125 -1.1875 C 6.472656 -1 7.289062 -0.96875 8.03125 -1.09375 C 8.78125 -1.21875 9.414062 -1.566406 9.9375 -2.140625 C 10.46875 -2.722656 10.851562 -3.566406 11.09375 -4.671875 C 11.3125 -5.722656 11.300781 -6.613281 11.0625 -7.34375 C 10.832031 -8.070312 10.410156 -8.664062 9.796875 -9.125 C 9.179688 -9.59375 8.421875 -9.925781 7.515625 -10.125 Z M 6.15625 -10.421875 "/></g></g></g><g fill="#fff9f9" fill-opacity="1"><g transform="translate(28.713793, 102.393755)"><g><path d="M 10.421875 -0.484375 L 1.234375 -0.0625 L 0.59375 -13.84375 L 9.78125 -14.265625 L 9.890625 -11.9375 L 3.296875 -11.625 L 3.453125 -8.21875 L 9.359375 -8.5 L 9.46875 -6.203125 L 3.5625 -5.921875 L 3.71875 -2.5 L 10.3125 -2.8125 Z M 10.421875 -0.484375 "/></g></g></g><g fill="#fff9f9" fill-opacity="1"><g transform="translate(45.460963, 101.000222)"><g><path d="M 7.4375 -2.296875 L 4.703125 -1.453125 L -4.03125 -13.1875 L -1.421875 -14 L 5.21875 -4.609375 L 5.390625 -16.109375 L 8 -16.90625 Z M 7.4375 -2.296875 "/></g></g></g><g fill="#fff9f9" fill-opacity="1"><g transform="translate(62.643592, 94.842399)"><g><path d="M 8.875 -5.5 L 1.046875 -0.65625 L -6.21875 -12.390625 L 1.609375 -17.234375 L 2.84375 -15.25 L -2.78125 -11.765625 L -1 -8.875 L 4.046875 -11.984375 L 5.265625 -10.015625 L 0.21875 -6.90625 L 2.03125 -4 L 7.65625 -7.484375 Z M 8.875 -5.5 "/></g></g></g><g fill="#fff9f9" fill-opacity="1"><g transform="translate(76.426387, 85.472581)"><g><path d="M 6.828125 -6.84375 L 0.875 -0.875 L -8.890625 -10.625 L -7.0625 -12.453125 L 1.0625 -4.34375 L 5.1875 -8.484375 Z M 6.828125 -6.84375 "/></g></g></g><g fill="#fff9f9" fill-opacity="1"><g transform="translate(87.086606, 74.209729)"><g><path d="M 3.921875 -6.265625 C 3.347656 -5.285156 2.679688 -4.523438 1.921875 -3.984375 C 1.171875 -3.453125 0.375 -3.113281 -0.46875 -2.96875 C -1.3125 -2.832031 -2.175781 -2.863281 -3.0625 -3.0625 C -3.945312 -3.257812 -4.800781 -3.59375 -5.625 -4.0625 C -6.4375 -4.539062 -7.148438 -5.113281 -7.765625 -5.78125 C -8.378906 -6.445312 -8.835938 -7.179688 -9.140625 -7.984375 C -9.441406 -8.785156 -9.546875 -9.644531 -9.453125 -10.5625 C -9.359375 -11.488281 -9.023438 -12.441406 -8.453125 -13.421875 C -7.878906 -14.421875 -7.21875 -15.1875 -6.46875 -15.71875 C -5.71875 -16.257812 -4.921875 -16.601562 -4.078125 -16.75 C -3.234375 -16.894531 -2.363281 -16.867188 -1.46875 -16.671875 C -0.582031 -16.472656 0.265625 -16.132812 1.078125 -15.65625 C 1.898438 -15.1875 2.613281 -14.617188 3.21875 -13.953125 C 3.832031 -13.285156 4.289062 -12.546875 4.59375 -11.734375 C 4.894531 -10.929688 5 -10.066406 4.90625 -9.140625 C 4.820312 -8.222656 4.492188 -7.265625 3.921875 -6.265625 Z M 1.90625 -7.4375 C 2.332031 -8.175781 2.515625 -8.90625 2.453125 -9.625 C 2.398438 -10.34375 2.132812 -11.019531 1.65625 -11.65625 C 1.1875 -12.289062 0.539062 -12.84375 -0.28125 -13.3125 C -1.09375 -13.789062 -1.890625 -14.070312 -2.671875 -14.15625 C -3.453125 -14.25 -4.164062 -14.140625 -4.8125 -13.828125 C -5.457031 -13.515625 -5.992188 -12.988281 -6.421875 -12.25 C -6.835938 -11.53125 -7.019531 -10.8125 -6.96875 -10.09375 C -6.914062 -9.382812 -6.65625 -8.710938 -6.1875 -8.078125 C -5.71875 -7.453125 -5.078125 -6.898438 -4.265625 -6.421875 C -3.441406 -5.953125 -2.632812 -5.671875 -1.84375 -5.578125 C -1.0625 -5.484375 -0.347656 -5.585938 0.296875 -5.890625 C 0.953125 -6.203125 1.488281 -6.71875 1.90625 -7.4375 Z M 1.90625 -7.4375 "/></g></g></g><g fill="#fff9f9" fill-opacity="1"><g transform="translate(96.490207, 55.98592)"><g><path d="M 0.9375 -3.71875 L 0.296875 -1.203125 L -13.078125 -4.578125 L -11.625 -10.328125 C -11.40625 -11.179688 -11.078125 -11.890625 -10.640625 -12.453125 C -10.203125 -13.015625 -9.648438 -13.398438 -8.984375 -13.609375 C -8.316406 -13.828125 -7.519531 -13.816406 -6.59375 -13.578125 C -5.75 -13.367188 -5.0625 -13.007812 -4.53125 -12.5 C -4.007812 -11.988281 -3.664062 -11.375 -3.5 -10.65625 C -3.34375 -9.9375 -3.375 -9.148438 -3.59375 -8.296875 L -4.40625 -5.0625 Z M -10.1875 -6.515625 L -6.625 -5.625 L -5.890625 -8.515625 C -5.722656 -9.191406 -5.742188 -9.75 -5.953125 -10.1875 C -6.171875 -10.625 -6.570312 -10.914062 -7.15625 -11.0625 C -7.726562 -11.207031 -8.210938 -11.132812 -8.609375 -10.84375 C -9.003906 -10.550781 -9.285156 -10.070312 -9.453125 -9.40625 Z M -10.1875 -6.515625 "/></g></g></g><g fill="#fff9f9" fill-opacity="1"><g transform="translate(100.063776, 38.774903)"><g><path d="M -0.015625 -10.4375 L 0 -1.234375 L -13.796875 -1.203125 L -13.8125 -10.40625 L -11.484375 -10.421875 L -11.46875 -3.8125 L -8.0625 -3.8125 L -8.078125 -9.734375 L -5.765625 -9.734375 L -5.75 -3.8125 L -2.328125 -3.828125 L -2.34375 -10.4375 Z M -0.015625 -10.4375 "/></g></g></g><g fill="#fff9f9" fill-opacity="1"><g transform="translate(99.405822, 21.994799)"><g><path d="M -8.15625 -7.578125 L -2.984375 -11.484375 L -2.28125 -8.796875 L -7.078125 -5.296875 L -6.3125 -2.3125 L -0.96875 -3.703125 L -0.3125 -1.1875 L -13.671875 2.28125 L -15.15625 -3.46875 C -15.382812 -4.320312 -15.4375 -5.097656 -15.3125 -5.796875 C -15.195312 -6.503906 -14.898438 -7.109375 -14.421875 -7.609375 C -13.941406 -8.109375 -13.238281 -8.484375 -12.3125 -8.734375 C -11.445312 -8.953125 -10.65625 -8.957031 -9.9375 -8.75 C -9.21875 -8.539062 -8.625 -8.148438 -8.15625 -7.578125 Z M -12.8125 -3.703125 L -12.0625 -0.8125 L -8.515625 -1.75 L -9.265625 -4.640625 C -9.429688 -5.316406 -9.710938 -5.789062 -10.109375 -6.0625 C -10.503906 -6.34375 -10.992188 -6.410156 -11.578125 -6.265625 C -12.140625 -6.117188 -12.523438 -5.820312 -12.734375 -5.375 C -12.953125 -4.925781 -12.976562 -4.367188 -12.8125 -3.703125 Z M -12.8125 -3.703125 "/></g></g></g></g></g></svg>